<?xml version="1.0" encoding="UTF-8"?>
<svg xmlns="http://www.w3.org/2000/svg" width="24" height="25" viewBox="0 0 24 25" fill="none">
  <path d="M10.5 2.3999C11.751 2.3999 12.94 2.6699 14.009 3.1559C13.4931 3.61335 13.1506 4.23452 13.039 4.9149C11.7531 4.36929 10.3258 4.2524 8.96828 4.58155C7.61081 4.91071 6.39548 5.66839 5.50235 6.74235C4.60922 7.81631 4.0858 9.14941 4.00965 10.5441C3.9335 11.9389 4.30867 13.321 5.07957 14.4859C5.85047 15.6507 6.97608 16.5362 8.28965 17.0111C9.60322 17.4861 11.0349 17.5253 12.3725 17.123C13.71 16.7206 14.8824 15.898 15.7159 14.7771C16.5494 13.6563 16.9997 12.2967 17 10.8999L16.995 10.6309C17.531 11.1109 18.234 11.3959 18.986 11.3999C18.8865 13.1354 18.2549 14.7981 17.177 16.1619L20.829 19.8139C21.0111 20.0025 21.1119 20.2551 21.1097 20.5173C21.1074 20.7795 21.0022 21.0303 20.8168 21.2157C20.6314 21.4011 20.3806 21.5063 20.1184 21.5086C19.8562 21.5109 19.6036 21.4101 19.415 21.2279L15.763 17.5759C14.6985 18.4148 13.4488 18.987 12.1181 19.2448C10.7875 19.5025 9.41452 19.4383 8.11374 19.0576C6.81296 18.6768 5.6221 17.9905 4.64049 17.0559C3.65889 16.1213 2.91502 14.9655 2.47093 13.685C2.02684 12.4044 1.89541 11.0362 2.08761 9.69456C2.2798 8.35289 2.79005 7.07664 3.57579 5.97227C4.36152 4.8679 5.39996 3.96743 6.60447 3.346C7.80897 2.72456 9.14462 2.40018 10.5 2.3999ZM10.5 5.3999C11.427 5.3999 12.301 5.6299 13.068 6.0349C13.1775 6.54031 13.4158 7.00883 13.7597 7.395C14.1036 7.78117 14.5416 8.07187 15.031 8.2389L15.379 8.3579C15.9338 9.4225 16.1251 10.6394 15.9237 11.8229C15.7222 13.0064 15.139 14.0914 14.2632 14.9125C13.3874 15.7335 12.2669 16.2455 11.0729 16.3702C9.87888 16.4948 8.67686 16.2254 7.65028 15.6031C6.6237 14.9807 5.82895 14.0395 5.38733 12.9232C4.9457 11.8068 4.88146 10.5767 5.2044 9.42039C5.52734 8.26413 6.21973 7.24529 7.17589 6.51935C8.13205 5.79342 9.29947 5.40027 10.5 5.3999ZM19 1.3999C19.1871 1.3999 19.3704 1.45238 19.5291 1.55137C19.6879 1.65037 19.8157 1.7919 19.898 1.9599L19.946 2.0769L20.076 2.4549C20.2132 2.85709 20.4343 3.22553 20.7246 3.53585C21.0149 3.84616 21.3678 4.09125 21.76 4.2549L21.945 4.3249L22.323 4.4539C22.5102 4.51776 22.6742 4.6357 22.7944 4.7928C22.9145 4.9499 22.9854 5.1391 22.9981 5.33648C23.0107 5.53386 22.9645 5.73055 22.8653 5.90168C22.7662 6.07282 22.6185 6.2107 22.441 6.2979L22.323 6.3459L21.945 6.4759C21.5428 6.6131 21.1744 6.83418 20.864 7.1245C20.5537 7.41481 20.3086 7.76774 20.145 8.1599L20.075 8.3449L19.946 8.7229C19.882 8.91004 19.764 9.07401 19.6068 9.19407C19.4497 9.31413 19.2604 9.3849 19.0631 9.39742C18.8657 9.40994 18.669 9.36366 18.498 9.26442C18.3269 9.16519 18.1891 9.01745 18.102 8.8399L18.054 8.7229L17.924 8.3449C17.7868 7.94272 17.5657 7.57427 17.2754 7.26396C16.9851 6.95365 16.6322 6.70855 16.24 6.5449L16.055 6.4749L15.677 6.3459C15.4898 6.28204 15.3257 6.1641 15.2056 6.00701C15.0854 5.84991 15.0145 5.66071 15.0019 5.46333C14.9893 5.26595 15.0355 5.06925 15.1346 4.89812C15.2338 4.72699 15.3815 4.5891 15.559 4.5019L15.677 4.4539L16.055 4.3239C16.4572 4.1867 16.8256 3.96562 17.1359 3.67531C17.4462 3.385 17.6913 3.03207 17.855 2.6399L17.925 2.4549L18.054 2.0769C18.1214 1.87949 18.2488 1.70809 18.4184 1.58669C18.588 1.4653 18.7914 1.39999 19 1.3999Z" fill="url(#paint0_linear_1442_11190)"></path>
  <defs>
    <linearGradient id="paint0_linear_1442_11190" x1="12.5009" y1="1.3999" x2="12.5009" y2="21.5086" gradientUnits="userSpaceOnUse">
      <stop stop-color="#42389E"></stop>
      <stop offset="1" stop-color="#0F1026"></stop>
    </linearGradient>
  </defs>
</svg>
