<?xml version="1.0" encoding="UTF-8"?>
<svg xmlns="http://www.w3.org/2000/svg" width="24" height="25" viewBox="0 0 24 25" fill="none">
  <path d="M20 9.3999V7.3999C20 6.2999 19.1 5.3999 18 5.3999H15C15 3.7399 13.66 2.3999 12 2.3999C10.34 2.3999 9 3.7399 9 5.3999H6C4.9 5.3999 4 6.2999 4 7.3999V9.3999C2.34 9.3999 1 10.7399 1 12.3999C1 14.0599 2.34 15.3999 4 15.3999V19.3999C4 20.4999 4.9 21.3999 6 21.3999H18C19.1 21.3999 20 20.4999 20 19.3999V15.3999C21.66 15.3999 23 14.0599 23 12.3999C23 10.7399 21.66 9.3999 20 9.3999ZM7.5 11.8999C7.5 11.0699 8.17 10.3999 9 10.3999C9.83 10.3999 10.5 11.0699 10.5 11.8999C10.5 12.7299 9.83 13.3999 9 13.3999C8.17 13.3999 7.5 12.7299 7.5 11.8999ZM15 17.3999H9C8.45 17.3999 8 16.9499 8 16.3999C8 15.8499 8.45 15.3999 9 15.3999H15C15.55 15.3999 16 15.8499 16 16.3999C16 16.9499 15.55 17.3999 15 17.3999ZM15 13.3999C14.17 13.3999 13.5 12.7299 13.5 11.8999C13.5 11.0699 14.17 10.3999 15 10.3999C15.83 10.3999 16.5 11.0699 16.5 11.8999C16.5 12.7299 15.83 13.3999 15 13.3999Z" fill="url(#paint0_linear_1442_11179)"></path>
  <defs>
    <linearGradient id="paint0_linear_1442_11179" x1="12" y1="2.3999" x2="12" y2="21.3999" gradientUnits="userSpaceOnUse">
      <stop stop-color="#42389E"></stop>
      <stop offset="1" stop-color="#0F1026"></stop>
    </linearGradient>
  </defs>
</svg>
