<?xml version="1.0" encoding="UTF-8"?>
<svg xmlns="http://www.w3.org/2000/svg" width="24" height="25" viewBox="0 0 24 25" fill="none">
  <path d="M22.1072 7.50498C21.8637 7.74942 21.5742 7.94328 21.2555 8.07537C20.9368 8.20747 20.595 8.2752 20.25 8.27466C20.0714 8.27435 19.8934 8.25613 19.7184 8.22029L16.8525 13.5425C17.1968 13.8867 17.4386 14.3198 17.5508 14.7935C17.6631 15.2672 17.6414 15.7628 17.4882 16.2249C17.335 16.687 17.0564 17.0974 16.6833 17.4102C16.3103 17.723 15.8577 17.9259 15.376 17.9963C14.8943 18.0667 14.4025 18.0017 13.9556 17.8086C13.5087 17.6156 13.1243 17.302 12.8453 16.9031C12.5663 16.5041 12.4038 16.0354 12.3759 15.5494C12.348 15.0634 12.4557 14.5792 12.6872 14.1509L10.2441 11.7078C9.86185 11.9144 9.43447 12.0232 9 12.0247C8.82144 12.0244 8.64335 12.0062 8.46844 11.9703L5.6025 17.2915C5.96958 17.6587 6.21956 18.1264 6.32083 18.6356C6.42209 19.1448 6.37009 19.6726 6.17141 20.1522C5.97272 20.6318 5.63626 21.0418 5.20459 21.3302C4.77292 21.6187 4.26541 21.7726 3.74625 21.7726C3.22708 21.7726 2.71958 21.6187 2.2879 21.3302C1.85623 21.0418 1.51978 20.6318 1.32109 20.1522C1.1224 19.6726 1.0704 19.1448 1.17167 18.6356C1.27293 18.1264 1.52291 17.6587 1.89 17.2915C2.19773 16.9841 2.57704 16.7579 2.99384 16.6334C3.41064 16.5089 3.85185 16.4899 4.27781 16.5781L7.14375 11.2559C6.65227 10.763 6.37628 10.0953 6.37628 9.3992C6.37628 8.70311 6.65227 8.03541 7.14375 7.54248C7.58958 7.09637 8.18112 6.8257 8.81016 6.77998C9.43919 6.73425 10.0637 6.91653 10.5693 7.29347C11.075 7.67041 11.428 8.21681 11.5639 8.8327C11.6997 9.44859 11.6092 10.0928 11.3091 10.6475L13.7522 13.0906C14.297 12.7976 14.9276 12.7056 15.5334 12.8309L18.3994 7.50873C18.1556 7.26497 17.9622 6.97558 17.8303 6.65708C17.6983 6.33859 17.6304 5.99722 17.6304 5.65248C17.6304 5.30773 17.6983 4.96637 17.8303 4.64787C17.9622 4.32937 18.1556 4.03998 18.3994 3.79623C18.8917 3.30392 19.5594 3.02734 20.2556 3.02734C20.9519 3.02734 21.6196 3.30392 22.1119 3.79623C22.6042 4.28854 22.8808 4.95625 22.8808 5.65248C22.8808 6.34871 22.6042 7.01642 22.1119 7.50873L22.1072 7.50498Z" fill="url(#paint0_linear_1442_11202)"></path>
  <defs>
    <linearGradient id="paint0_linear_1442_11202" x1="12.001" y1="3.02734" x2="12.001" y2="21.7726" gradientUnits="userSpaceOnUse">
      <stop stop-color="#42389E"></stop>
      <stop offset="1" stop-color="#0F1026"></stop>
    </linearGradient>
  </defs>
</svg>
